<svg width="24" height="24" viewBox="0 0 24 24" xmlns="http://www.w3.org/2000/svg">
  <path d="M12.998 22H10.998V19H12.998V22ZM18.362 19.778L16.241 17.657L17.655 16.243L19.777 18.365L18.364 19.778H18.362V19.778ZM5.63405 19.778L4.22005 18.364L6.34005 16.242L7.75505 17.656L5.63505 19.777V19.778H5.63405ZM11.998 17.007C10.6701 17.0065 9.39677 16.4784 8.45815 15.5391C7.51953 14.5997 6.99252 13.3259 6.99305 11.998C6.99358 10.6701 7.52161 9.39672 8.46098 8.4581C9.40035 7.51948 10.6741 6.99247 12.002 6.993C12.6596 6.99326 13.3106 7.12303 13.918 7.3749C14.5254 7.62677 15.0772 7.9958 15.5419 8.46093C16.0067 8.92606 16.3753 9.47817 16.6267 10.0858C16.8781 10.6933 17.0073 11.3445 17.007 12.002C17.0068 12.6595 16.877 13.3106 16.6251 13.9179C16.3733 14.5253 16.0042 15.0771 15.5391 15.5419C15.074 16.0067 14.5219 16.3752 13.9143 16.6266C13.3067 16.878 12.6556 17.0073 11.998 17.007V17.007ZM11.998 8.993C11.6032 8.99326 11.2122 9.0713 10.8475 9.22266C10.4827 9.37402 10.1514 9.59573 9.87236 9.87514C9.59332 10.1546 9.37205 10.4862 9.22118 10.8511C9.0703 11.216 8.99278 11.6071 8.99305 12.002C8.99331 12.3969 9.07135 12.7879 9.22271 13.1526C9.37406 13.5173 9.59578 13.8486 9.87519 14.1277C10.1546 14.4067 10.4862 14.628 10.8512 14.7789C11.2161 14.9297 11.6072 15.0073 12.002 15.007C12.7996 15.0065 13.5642 14.6892 14.1277 14.1249C14.6913 13.5606 15.0076 12.7955 15.007 11.998C15.0065 11.2005 14.6892 10.4359 14.1249 9.87232C13.5606 9.30877 12.7956 8.99247 11.998 8.993V8.993ZM21.998 13H18.998V11H21.998V13ZM4.99805 13H1.99805V11H4.99805V13ZM17.654 7.758L16.241 6.343L18.362 4.221L19.777 5.636L17.655 7.757L17.654 7.758V7.758ZM6.34105 7.758L4.22105 5.637L5.63605 4.223L7.75605 6.345L6.34205 7.757V7.758H6.34105ZM12.998 5H10.998V2H12.998V5Z" fill="white"/>
</svg>